/* XPM */
/* $Id: simpat-clear.xpm,v 1.1 1999/03/28 15:06:14 root Exp $ */
static char * simpat_clear_xpm[] = {
"20 20 3 1",
"  c None",
"! c black",
"# c white",
"                    ",
"                    ",
"                    ",
"                    ",
"                    ",
"     !!!!!!!!!!!!   ",
"     !##########!   ",
"     !##########!   ",
"     !##########!   ",
"     !##########!   ",
"     !##########!   ",
"     !##########!   ",
"     !##########!   ",
"     !##########!   ",
"     !##########!   ",
"     !##########!   ",
"     !!!!!!!!!!!!   ",
"                    ",
"                    ",
"                    ",
};
