/* XPM */
/* $Id: simpat-step.xpm,v 1.1 1999/03/28 11:33:48 root Exp $ */
static char * simpat_step_xpm[] = {
"20 20 4 1",
"  c None",
"! c black",
"# c green",
"$ c red",
"                    ",
"                    ",
"                    ",
"   !!!!             ",
"   !###!            ",
"   !####!      !!!! ",
"   !#####!     !$$! ",
"   !######!    !$$! ",
"   !#######!   !$$! ",
"   !########!  !$$! ",
"   !#########! !$$! ",
"   !#########! !$$! ",
"   !########!  !$$! ",
"   !#######!   !$$! ",
"   !######!    !$$! ",
"   !#####!     !$$! ",
"   !####!      !!!! ",
"   !###!            ",
"   !!!!             ",
"                    ",
};
